<mxfile host="app.diagrams.net" modified="2024-02-17T03:15:13.357Z" agent="Mozilla/5.0 (Windows NT 10.0; Win64; x64; rv:122.0) Gecko/20100101 Firefox/122.0" etag="-vkf6xkKtWghpPS3b-y9" version="23.1.5" type="device">
  <diagram id="C5RBs43oDa-KdzZeNtuy" name="Page-1">
    <mxGraphModel dx="1372" dy="807" grid="1" gridSize="10" guides="1" tooltips="1" connect="1" arrows="1" fold="1" page="1" pageScale="1" pageWidth="827" pageHeight="1169" math="0" shadow="0">
      <root>
        <mxCell id="WIyWlLk6GJQsqaUBKTNV-0" />
        <mxCell id="WIyWlLk6GJQsqaUBKTNV-1" parent="WIyWlLk6GJQsqaUBKTNV-0" />
        <mxCell id="XLJTDnPUQ3XtN2YIB7lv-0" value="Player" style="html=1;whiteSpace=wrap;" vertex="1" parent="WIyWlLk6GJQsqaUBKTNV-1">
          <mxGeometry x="120" y="170" width="110" height="50" as="geometry" />
        </mxCell>
        <mxCell id="XLJTDnPUQ3XtN2YIB7lv-1" value="&lt;div&gt;Gun&lt;/div&gt;" style="html=1;whiteSpace=wrap;" vertex="1" parent="WIyWlLk6GJQsqaUBKTNV-1">
          <mxGeometry x="120" y="280" width="110" height="50" as="geometry" />
        </mxCell>
        <mxCell id="XLJTDnPUQ3XtN2YIB7lv-2" value="&lt;div&gt;holds&lt;/div&gt;" style="endArrow=block;endFill=1;html=1;edgeStyle=orthogonalEdgeStyle;align=left;verticalAlign=top;rounded=0;exitX=0.5;exitY=1;exitDx=0;exitDy=0;" edge="1" parent="WIyWlLk6GJQsqaUBKTNV-1" source="XLJTDnPUQ3XtN2YIB7lv-0" target="XLJTDnPUQ3XtN2YIB7lv-1">
          <mxGeometry x="-0.6667" y="5" relative="1" as="geometry">
            <mxPoint x="170" y="300" as="sourcePoint" />
            <mxPoint x="330" y="300" as="targetPoint" />
            <mxPoint as="offset" />
          </mxGeometry>
        </mxCell>
        <mxCell id="XLJTDnPUQ3XtN2YIB7lv-4" value="State" style="html=1;whiteSpace=wrap;" vertex="1" parent="WIyWlLk6GJQsqaUBKTNV-1">
          <mxGeometry x="580" y="40" width="110" height="50" as="geometry" />
        </mxCell>
        <mxCell id="XLJTDnPUQ3XtN2YIB7lv-12" style="edgeStyle=orthogonalEdgeStyle;rounded=0;orthogonalLoop=1;jettySize=auto;html=1;entryX=0.25;entryY=1;entryDx=0;entryDy=0;" edge="1" parent="WIyWlLk6GJQsqaUBKTNV-1" source="XLJTDnPUQ3XtN2YIB7lv-5" target="XLJTDnPUQ3XtN2YIB7lv-4">
          <mxGeometry relative="1" as="geometry" />
        </mxCell>
        <mxCell id="XLJTDnPUQ3XtN2YIB7lv-5" value="&lt;div&gt;FiniteStateMachine&lt;/div&gt;" style="html=1;whiteSpace=wrap;" vertex="1" parent="WIyWlLk6GJQsqaUBKTNV-1">
          <mxGeometry x="470" y="170" width="110" height="50" as="geometry" />
        </mxCell>
        <mxCell id="XLJTDnPUQ3XtN2YIB7lv-11" style="edgeStyle=orthogonalEdgeStyle;rounded=0;orthogonalLoop=1;jettySize=auto;html=1;entryX=0.5;entryY=1;entryDx=0;entryDy=0;endArrow=block;endFill=0;" edge="1" parent="WIyWlLk6GJQsqaUBKTNV-1" source="XLJTDnPUQ3XtN2YIB7lv-6" target="XLJTDnPUQ3XtN2YIB7lv-4">
          <mxGeometry relative="1" as="geometry">
            <Array as="points">
              <mxPoint x="650" y="130" />
              <mxPoint x="635" y="130" />
            </Array>
          </mxGeometry>
        </mxCell>
        <mxCell id="XLJTDnPUQ3XtN2YIB7lv-6" value="&lt;div&gt;EnemyWanderState&lt;/div&gt;" style="html=1;whiteSpace=wrap;" vertex="1" parent="WIyWlLk6GJQsqaUBKTNV-1">
          <mxGeometry x="600" y="170" width="110" height="50" as="geometry" />
        </mxCell>
        <mxCell id="XLJTDnPUQ3XtN2YIB7lv-9" style="edgeStyle=orthogonalEdgeStyle;rounded=0;orthogonalLoop=1;jettySize=auto;html=1;entryX=0.75;entryY=1;entryDx=0;entryDy=0;endArrow=block;endFill=0;" edge="1" parent="WIyWlLk6GJQsqaUBKTNV-1" source="XLJTDnPUQ3XtN2YIB7lv-7" target="XLJTDnPUQ3XtN2YIB7lv-4">
          <mxGeometry relative="1" as="geometry">
            <Array as="points">
              <mxPoint x="785" y="130" />
              <mxPoint x="663" y="130" />
            </Array>
          </mxGeometry>
        </mxCell>
        <mxCell id="XLJTDnPUQ3XtN2YIB7lv-7" value="&lt;div&gt;EnemyChaseState&lt;/div&gt;" style="html=1;whiteSpace=wrap;" vertex="1" parent="WIyWlLk6GJQsqaUBKTNV-1">
          <mxGeometry x="730" y="170" width="110" height="50" as="geometry" />
        </mxCell>
        <mxCell id="XLJTDnPUQ3XtN2YIB7lv-13" value="EnemyScientist (Enemy)" style="html=1;whiteSpace=wrap;" vertex="1" parent="WIyWlLk6GJQsqaUBKTNV-1">
          <mxGeometry x="600" y="280" width="110" height="50" as="geometry" />
        </mxCell>
        <mxCell id="XLJTDnPUQ3XtN2YIB7lv-15" value="&lt;div&gt;Medkit&lt;/div&gt;" style="html=1;whiteSpace=wrap;" vertex="1" parent="WIyWlLk6GJQsqaUBKTNV-1">
          <mxGeometry x="670" y="770" width="110" height="50" as="geometry" />
        </mxCell>
        <mxCell id="XLJTDnPUQ3XtN2YIB7lv-16" value="Ammobox" style="html=1;whiteSpace=wrap;" vertex="1" parent="WIyWlLk6GJQsqaUBKTNV-1">
          <mxGeometry x="800" y="770" width="110" height="50" as="geometry" />
        </mxCell>
        <mxCell id="XLJTDnPUQ3XtN2YIB7lv-17" value="Armour" style="html=1;whiteSpace=wrap;" vertex="1" parent="WIyWlLk6GJQsqaUBKTNV-1">
          <mxGeometry x="930" y="770" width="110" height="50" as="geometry" />
        </mxCell>
        <mxCell id="XLJTDnPUQ3XtN2YIB7lv-22" value="HitboxComponent" style="html=1;whiteSpace=wrap;" vertex="1" parent="WIyWlLk6GJQsqaUBKTNV-1">
          <mxGeometry x="360" y="275" width="110" height="50" as="geometry" />
        </mxCell>
        <mxCell id="XLJTDnPUQ3XtN2YIB7lv-24" value="PickupComponent" style="html=1;whiteSpace=wrap;" vertex="1" parent="WIyWlLk6GJQsqaUBKTNV-1">
          <mxGeometry x="800" y="670" width="110" height="50" as="geometry" />
        </mxCell>
        <mxCell id="XLJTDnPUQ3XtN2YIB7lv-26" value="PlayerCamera" style="html=1;whiteSpace=wrap;" vertex="1" parent="WIyWlLk6GJQsqaUBKTNV-1">
          <mxGeometry x="120" y="55" width="110" height="50" as="geometry" />
        </mxCell>
      </root>
    </mxGraphModel>
  </diagram>
</mxfile>
